<?xml version="1.0" encoding="utf-8"?>
<svg viewBox="0 0 20 22" width="100" height="110" fill="none" xmlns="http://www.w3.org/2000/svg">
  <path d="M 16.028 17.782 L 16.028 16.275 C 16.028 15.475 15.711 14.709 15.145 14.144 C 14.58 13.578 13.813 13.261 13.014 13.261 L 6.986 13.261 C 6.186 13.261 5.419 13.578 4.854 14.144 C 4.289 14.709 3.971 15.475 3.971 16.275 L 3.971 17.782 M 13.014 7.232 C 13.014 8.897 11.664 10.246 10 10.246 C 8.335 10.246 6.986 8.897 6.986 7.232 C 6.986 5.568 8.335 4.218 10 4.218 C 11.664 4.218 13.014 5.568 13.014 7.232 Z" stroke="#FF640F" stroke-linecap="round" stroke-linejoin="round" style=""/>
</svg>