<?xml version="1.0" standalone="no"?>
<!DOCTYPE svg PUBLIC "-//W3C//DTD SVG 20010904//EN"
 "http://www.w3.org/TR/2001/REC-SVG-20010904/DTD/svg10.dtd">
<svg version="1.0" xmlns="http://www.w3.org/2000/svg"
 width="700.000000pt" height="700.000000pt" viewBox="0 0 700.000000 700.000000"
 preserveAspectRatio="xMidYMid meet">
<metadata>
Created by potrace 1.14, written by Peter Selinger 2001-2017
</metadata>
<g transform="translate(0.000000,700.000000) scale(0.100000,-0.100000)"
fill="#000000" stroke="none">
<path d="M1709 6996 c-2 -2 -26 -7 -52 -10 -143 -19 -296 -109 -391 -228 -72
-92 -124 -221 -141 -351 -3 -26 -10 -69 -15 -95 -4 -26 -11 -67 -15 -92 -3
-25 -15 -97 -25 -160 -10 -63 -22 -135 -25 -160 -3 -25 -8 -52 -10 -60 -2 -8
-7 -35 -10 -60 -3 -25 -10 -67 -15 -95 -5 -27 -11 -66 -14 -85 -4 -28 -31
-199 -51 -320 -2 -14 -15 -95 -29 -180 -13 -85 -27 -173 -31 -195 -4 -22 -8
-49 -9 -60 -2 -11 -6 -36 -10 -55 -3 -19 -15 -93 -26 -165 -12 -71 -23 -141
-25 -155 -2 -14 -13 -83 -24 -155 -12 -71 -37 -227 -56 -345 -19 -118 -37
-228 -39 -245 -2 -16 -12 -75 -20 -130 -9 -55 -19 -113 -21 -130 -3 -16 -9
-57 -15 -90 -12 -73 -57 -355 -65 -410 -7 -42 -9 -57 -19 -115 -14 -82 -16
-97 -21 -135 -3 -22 -8 -53 -11 -70 -11 -63 -62 -382 -69 -428 -3 -27 -8 -59
-11 -70 -2 -12 -7 -38 -10 -57 -3 -19 -14 -87 -24 -150 -24 -146 -30 -187 -36
-227 -6 -48 -73 -461 -84 -523 -5 -30 -12 -73 -15 -95 -3 -22 -11 -66 -16 -98
-6 -32 -12 -74 -15 -94 -2 -20 -18 -120 -35 -222 -16 -103 -32 -199 -35 -216
-2 -16 -11 -71 -20 -121 -18 -101 -16 -126 6 -129 55 -9 96 -16 114 -20 12 -3
35 -7 51 -9 36 -5 160 -24 195 -30 46 -9 145 -25 183 -31 21 -3 173 -27 337
-55 165 -27 319 -53 342 -56 89 -13 81 -20 100 91 9 55 20 120 23 145 3 25 8
52 10 60 2 8 7 35 10 60 3 25 8 56 10 70 9 43 12 64 20 110 3 25 9 59 11 75 3
17 7 41 9 55 9 61 16 109 25 155 5 28 19 113 31 190 11 77 23 149 25 160 2 11
6 31 9 45 4 22 11 66 20 135 2 11 15 92 29 180 15 88 36 216 46 285 11 69 25
150 30 180 5 30 14 84 19 120 16 103 23 144 26 160 2 8 4 20 5 25 3 12 -3 41
124 -590 58 -286 107 -532 110 -547 11 -51 17 -83 20 -103 2 -11 7 -31 10 -45
3 -14 8 -36 10 -50 2 -14 27 -137 55 -275 58 -282 81 -343 160 -423 63 -63
121 -103 196 -135 106 -44 165 -56 300 -61 210 -8 406 66 525 197 56 62 102
167 124 287 6 34 36 184 86 425 23 110 44 209 46 220 2 11 8 43 14 71 6 28 13
61 15 75 3 13 20 96 39 184 18 88 62 300 97 472 35 172 65 311 66 309 3 -3 56
-321 68 -410 3 -23 10 -63 15 -91 9 -44 49 -297 65 -410 10 -64 13 -85 29
-180 8 -49 17 -106 20 -125 3 -19 8 -46 11 -60 3 -14 7 -43 10 -65 3 -22 7
-51 9 -65 3 -14 14 -81 25 -150 26 -157 28 -165 42 -209 72 -217 244 -373 479
-432 69 -18 103 -20 189 -16 114 6 129 8 202 32 146 49 285 167 357 303 17 32
359 880 761 1887 402 1007 736 1837 741 1847 6 11 5 18 -3 21 -240 96 -868
350 -882 357 -11 5 -56 23 -100 41 -44 17 -93 37 -110 44 -54 24 -136 55 -144
55 -5 0 -63 -138 -130 -308 -68 -169 -129 -320 -136 -337 -25 -54 -285 -715
-285 -724 0 -5 -7 -14 -15 -21 -13 -11 -15 -7 -17 21 0 19 -2 39 -3 44 -1 6
-5 30 -9 55 -4 25 -9 56 -12 70 -2 14 -6 34 -8 45 -2 11 -7 45 -11 75 -4 30
-9 64 -11 75 -3 11 -7 36 -9 55 -3 19 -7 44 -10 55 -2 11 -13 79 -24 150 -12
72 -23 141 -26 155 -2 14 -7 41 -9 60 -7 48 -12 83 -52 325 -19 116 -39 239
-44 275 -13 84 -17 107 -45 280 -22 131 -32 197 -40 255 -3 20 -12 69 -20 115
-2 14 -7 45 -10 70 -3 25 -8 52 -10 60 -3 12 -38 223 -61 375 -3 17 -19 116
-35 220 -17 105 -33 204 -35 220 -2 17 -6 41 -9 55 -4 14 -8 35 -11 48 -45
217 -215 410 -432 489 -79 29 -138 38 -247 38 -112 0 -162 -10 -257 -51 -177
-75 -309 -223 -362 -409 -14 -46 -64 -298 -81 -409 -4 -21 -9 -48 -11 -60 -3
-11 -7 -30 -8 -41 -2 -11 -7 -38 -11 -60 -4 -22 -9 -49 -11 -60 -2 -11 -9 -47
-15 -80 -6 -33 -13 -71 -15 -85 -3 -14 -9 -50 -15 -80 -6 -30 -13 -68 -15 -85
-3 -16 -11 -61 -19 -100 -8 -38 -16 -83 -19 -100 -7 -40 -34 -193 -41 -230 -3
-16 -14 -75 -25 -130 -10 -55 -21 -116 -24 -135 -3 -19 -8 -48 -11 -65 -7 -38
-34 -184 -39 -210 -2 -11 -11 -64 -21 -118 -10 -54 -19 -96 -20 -95 -2 2 -11
44 -20 93 -28 159 -51 285 -60 330 -6 31 -54 294 -61 333 -8 48 -13 71 -34
187 -12 66 -24 131 -26 145 -3 14 -13 70 -24 125 -10 55 -21 117 -24 138 -3
21 -13 71 -20 110 -8 40 -17 88 -20 107 -8 50 -16 93 -21 110 -2 8 -7 38 -11
65 -3 28 -8 53 -10 56 -3 5 -16 76 -30 164 -34 210 -97 343 -214 455 -91 86
-217 152 -335 175 -37 7 -211 16 -216 11z"/>
</g>
</svg>
