<?xml version="1.0" standalone="no"?>
<!DOCTYPE svg PUBLIC "-//W3C//DTD SVG 20010904//EN"
 "http://www.w3.org/TR/2001/REC-SVG-20010904/DTD/svg10.dtd">
<svg version="1.0" xmlns="http://www.w3.org/2000/svg"
 width="700.000000pt" height="700.000000pt" viewBox="0 0 700.000000 700.000000"
 preserveAspectRatio="xMidYMid meet">
<metadata>
Created by potrace 1.14, written by Peter Selinger 2001-2017
</metadata>
<g transform="translate(0.000000,700.000000) scale(0.100000,-0.100000)"
fill="#000000" stroke="none">
<path d="M1995 5504 c-180 -35 -362 -176 -444 -344 -74 -153 -71 -72 -71
-1660 0 -1589 -4 -1508 71 -1660 59 -119 170 -230 289 -288 156 -76 69 -72
1660 -72 1591 0 1504 -4 1660 72 119 58 230 169 288 288 76 156 72 69 72 1660
0 1236 -2 1431 -15 1498 -50 251 -260 460 -508 507 -113 21 -2894 21 -3002 -1z
m788 -258 c70 -34 140 -110 165 -179 10 -29 61 -284 112 -567 51 -283 96 -518
99 -522 4 -4 51 234 104 530 106 582 112 605 187 680 68 68 119 87 235 87 89
0 106 -3 157 -28 71 -35 140 -110 167 -181 11 -31 71 -376 147 -847 70 -437
130 -797 133 -802 4 -4 69 149 146 340 76 192 140 350 142 352 4 5 613 -238
627 -250 5 -4 -164 -438 -374 -964 -427 -1067 -408 -1028 -527 -1087 -61 -30
-76 -33 -153 -33 -71 1 -95 5 -146 29 -34 15 -80 46 -102 69 -74 76 -83 110
-158 584 -38 238 -71 429 -74 425 -4 -4 -48 -212 -99 -462 -51 -250 -102 -476
-113 -503 -40 -92 -131 -146 -264 -154 -65 -5 -95 -1 -151 15 -75 23 -151 80
-179 133 -11 22 -204 945 -204 977 0 37 -22 -92 -101 -578 -50 -316 -95 -579
-99 -583 -11 -13 -661 95 -667 110 -3 7 110 731 251 1610 248 1551 256 1600
288 1663 37 73 104 131 178 155 74 24 204 15 273 -19z"/>
</g>
</svg>
