<?xml version="1.0" standalone="no"?>
<!DOCTYPE svg PUBLIC "-//W3C//DTD SVG 20010904//EN"
 "http://www.w3.org/TR/2001/REC-SVG-20010904/DTD/svg10.dtd">
<svg version="1.0" xmlns="http://www.w3.org/2000/svg"
 width="700.000000pt" height="700.000000pt" viewBox="0 0 700.000000 700.000000"
 preserveAspectRatio="xMidYMid meet">
<metadata>
Created by potrace 1.14, written by Peter Selinger 2001-2017
</metadata>
<g transform="translate(0.000000,700.000000) scale(0.100000,-0.100000)"
fill="#000000" stroke="none">
<path d="M1939 4693 c0 -4 -2 -17 -4 -28 -3 -11 -7 -40 -10 -65 -3 -25 -7 -52
-9 -60 -3 -8 -7 -31 -10 -50 -3 -19 -15 -93 -26 -165 -29 -182 -32 -199 -34
-210 -2 -5 -6 -32 -10 -60 -4 -27 -11 -72 -17 -100 -5 -27 -11 -69 -14 -93 -3
-24 -7 -53 -10 -65 -2 -12 -7 -40 -10 -61 -3 -21 -7 -48 -10 -60 -2 -12 -7
-37 -10 -56 -2 -19 -6 -44 -8 -55 -3 -11 -12 -74 -22 -140 -10 -66 -21 -124
-25 -128 -4 -4 -44 63 -90 150 -46 87 -91 172 -100 188 -9 17 -43 80 -75 140
-32 61 -66 124 -75 140 -10 17 -41 75 -70 130 -84 160 -155 291 -244 455 -62
114 -98 149 -175 170 -144 38 -281 -64 -284 -212 0 -44 3 -71 23 -193 15 -92
17 -102 24 -155 3 -25 8 -55 10 -67 3 -11 8 -43 12 -70 3 -26 8 -57 10 -68 2
-11 13 -78 24 -150 12 -71 23 -141 25 -155 2 -14 16 -99 30 -190 14 -91 28
-176 30 -190 2 -14 7 -45 10 -70 3 -25 8 -52 10 -60 3 -8 7 -32 9 -53 3 -20
12 -81 21 -135 9 -53 18 -108 20 -122 4 -30 16 -109 20 -130 1 -8 6 -35 10
-60 4 -25 9 -52 10 -60 2 -9 7 -43 11 -75 4 -33 8 -62 9 -65 1 -3 5 -24 9 -47
4 -24 11 -43 15 -43 4 0 32 4 62 10 50 8 70 11 169 26 30 4 60 9 179 29 40 7
41 -28 -20 365 -11 69 -27 167 -35 219 -9 52 -18 115 -20 140 l-5 46 34 -65
c47 -92 144 -274 165 -312 10 -18 53 -99 96 -180 93 -178 131 -217 225 -231
45 -7 138 19 178 49 18 14 42 42 52 62 15 30 55 242 97 516 3 21 8 48 10 60 2
11 7 37 10 56 3 19 10 62 15 95 5 33 12 76 15 95 2 19 11 71 19 115 8 44 17
94 19 110 2 17 8 50 12 75 4 25 8 50 9 55 0 6 4 30 9 55 4 25 10 59 12 75 3
17 9 55 14 85 5 30 11 71 14 90 3 19 7 44 10 55 2 11 7 43 10 70 4 28 11 68
16 90 4 22 11 60 14 85 3 25 8 55 10 66 4 20 7 38 22 132 3 20 12 70 19 110
12 70 12 72 -9 77 -54 10 -93 17 -121 21 -16 2 -75 13 -130 23 -151 29 -175
33 -176 24z"/>
<path d="M2952 4668 c-59 -23 -95 -54 -122 -108 -27 -53 -28 -118 -5 -255 9
-55 19 -113 22 -130 2 -16 8 -57 14 -90 12 -80 13 -77 -18 -71 -16 4 -41 9
-58 12 -16 2 -37 7 -45 9 -8 2 -28 7 -45 9 -16 3 -83 16 -148 30 -84 17 -120
20 -122 12 -4 -11 -47 -231 -66 -336 -6 -30 -12 -67 -15 -81 -5 -26 -4 -27 93
-44 131 -23 134 -24 163 -30 14 -2 41 -7 60 -10 19 -3 42 -8 50 -10 8 -2 32
-6 54 -10 21 -3 41 -7 45 -9 3 -2 31 -7 61 -11 56 -7 72 -15 76 -37 1 -7 4
-30 8 -50 3 -21 9 -55 12 -75 3 -21 7 -49 9 -63 2 -14 7 -47 10 -75 4 -27 8
-57 10 -65 2 -8 7 -35 10 -60 3 -25 10 -70 15 -100 5 -30 12 -75 15 -100 3
-25 10 -70 15 -100 9 -55 15 -98 25 -167 3 -21 7 -47 10 -58 2 -11 7 -43 10
-71 3 -28 8 -61 10 -75 3 -13 8 -42 10 -64 10 -71 11 -74 53 -65 33 7 67 13
157 25 36 5 102 16 130 21 11 2 40 7 65 10 57 8 59 10 55 37 -3 20 -12 82 -20
144 -2 12 -6 34 -9 50 -3 15 -8 51 -12 78 -3 28 -8 59 -10 70 -5 28 -16 96
-19 125 -5 42 -22 147 -30 189 -2 12 -6 42 -9 65 -3 22 -12 84 -20 136 -28
178 -27 168 -8 165 9 -2 40 -9 67 -14 28 -6 64 -13 80 -16 17 -3 41 -7 55 -10
64 -12 201 -39 600 -115 91 -18 174 -34 185 -36 11 -2 45 -8 75 -14 71 -13 99
-18 130 -25 28 -6 33 -7 155 -30 50 -9 100 -19 111 -21 18 -5 22 0 28 33 4 21
23 121 42 222 20 101 32 187 27 192 -4 4 -24 10 -43 14 -19 3 -46 7 -60 10
-14 3 -38 7 -55 10 -36 6 -37 6 -274 52 -103 19 -195 37 -206 38 -31 5 -83 15
-160 30 -58 12 -279 54 -375 71 -14 2 -72 13 -130 24 -58 11 -116 22 -130 24
-121 23 -205 39 -208 41 -1 1 -9 44 -18 96 -8 52 -17 106 -19 120 -3 14 -7 41
-9 60 l-4 34 624 0 624 -1 0 231 0 231 -776 0 c-721 -1 -778 -2 -822 -18z"/>
<path d="M4818 4659 c-47 -11 -108 -50 -135 -87 -30 -42 -42 -85 -39 -149 4
-68 34 -126 88 -166 27 -21 260 -114 433 -174 22 -7 49 -17 60 -22 11 -5 32
-13 46 -19 l26 -10 1 -824 c0 -453 1 -835 1 -850 l1 -28 225 0 225 0 0 940 c0
745 3 940 13 941 6 1 149 3 317 4 168 1 310 3 315 4 6 1 10 82 10 223 l-1 223
-774 2 c-426 0 -792 -3 -812 -8z"/>
</g>
</svg>
